<svg width="50" height="50" viewBox="0 0 50 50" fill="none" xmlns="http://www.w3.org/2000/svg">
<mask id="mask0_118_52" style="mask-type:alpha" maskUnits="userSpaceOnUse" x="5" y="6" width="39" height="39">
<path fill-rule="evenodd" clip-rule="evenodd" d="M20.763 43.6945C15.7929 38.8288 14.7198 32.4487 15.2405 32.8748L15.5563 33.1685C19.7534 37.0869 23.8596 41.4128 28.4908 43.3461C26.0345 44.6849 23.388 44.0731 20.763 43.6945ZM15.0241 26.0168C23.9043 29.9641 32.9229 32.3249 42.3165 30.7889L42.181 31.1488C40.6954 35.0615 38.5118 39.5759 31.8196 42.5327C22.1822 40.182 20.5986 33.1786 14.665 31.0394C14.6967 29.4271 14.9059 27.5528 15.0256 26.0183L15.0241 26.0168ZM13.4203 32.5149C13.5934 35.9339 15.0688 39.0879 17.0116 42.1455C15.9183 41.9123 11.2064 39.5327 10.3194 36.7443C10.3482 34.2899 11.6924 33.2016 13.4203 32.5149ZM6.78579 19.9707C8.40115 22.0682 10.7593 23.702 13.4607 25.0149L13.6193 25.0926L13.2213 31.1099C11.078 31.0236 9.81603 33.0764 8.70836 35.2486C6.18003 30.6853 4.78534 25.7851 6.78579 19.9707ZM18.3068 18.0561C25.661 19.9635 31.8773 13.4294 41.5781 18.285C44.004 22.0782 43.329 25.8139 42.9511 27.7889C39.9815 31.7808 21.9514 27.9098 15.614 24.2908C15.6486 22.0969 16.5688 20.024 18.3068 18.0561ZM16.8097 8.63862L16.7635 8.8344C16.0857 11.6991 15.0703 14.5609 16.8097 17.4659C15.4799 19.1617 14.7472 21.2231 14.0174 23.2831C10.6973 21.9012 8.46749 20.0096 7.62808 17.4659C10.5588 11.9193 14.0881 9.49947 16.8097 8.63862ZM33.3599 9.03881L33.6195 9.20868C35.4137 10.3834 36.7031 11.345 37.4863 12.0935C38.3084 12.8781 39.243 14.0657 40.2916 15.6593C33.6037 12.393 25.7605 17.3292 19.0611 16.8987C23.5351 11.8646 28.2081 9.05465 33.3599 9.03881ZM18.702 7.79793C22.9711 6.14389 26.7845 6.46203 30.3845 7.7461C25.1576 8.73219 21.2361 11.7452 18.0068 15.6607C16.6049 13.4957 18.8433 8.58536 18.702 7.79793Z" fill="#D8D1D1"/>
<path opacity="0.25" fill-rule="evenodd" clip-rule="evenodd" d="M28.4916 43.3385C27.6882 43.0305 26.6137 42.4503 25.2695 41.5967C23.4291 41.994 21.3652 42.0429 19.0388 41.7378C19.2768 42.1955 19.8508 42.8448 20.7624 43.6855C23.3873 44.0641 26.0354 44.6759 28.4916 43.3385ZM38.5443 31.2031C39.4876 31.1125 41.364 30.9354 42.3159 30.7799C40.8246 34.7718 38.7174 39.4748 31.8189 42.5237C30.417 42.1826 28.1339 41.3779 27.2079 40.7718C34.4453 38.3966 38.0164 32.1115 38.5443 31.2031ZM39.2698 29.3245C41.1592 29.1763 42.4313 28.4781 42.9505 27.7785C43.3284 25.8034 44.0034 22.0678 41.5774 18.2746C41.1736 18.0722 40.7628 17.884 40.3457 17.7103C41.9495 21.7439 40.7121 26.4382 39.2698 29.3245ZM40.2924 15.6517C39.2438 14.0581 38.3078 12.8705 37.4871 12.086C36.6665 11.3014 35.2905 10.2837 33.3622 9.03125C36.2193 11.4137 38.0958 13.4435 38.9871 15.1205C39.427 15.2659 39.8626 15.4401 40.2924 15.6517Z" fill="#D8D1D1"/>
</mask>
<g mask="url(#mask0_118_52)">
<path fill-rule="evenodd" clip-rule="evenodd" d="M20.763 43.6945C15.7929 38.8288 14.7198 32.4487 15.2405 32.8748L15.5563 33.1685C19.7534 37.0869 23.8596 41.4128 28.4908 43.3461C26.0345 44.6849 23.388 44.0731 20.763 43.6945ZM15.0241 26.0168C23.9043 29.9641 32.9229 32.3249 42.3165 30.7889L42.181 31.1488C40.6954 35.0615 38.5118 39.5759 31.8196 42.5327C22.1822 40.182 20.5986 33.1786 14.665 31.0394C14.6967 29.4271 14.9059 27.5528 15.0256 26.0183L15.0241 26.0168ZM13.4203 32.5149C13.5934 35.9339 15.0688 39.0879 17.0116 42.1455C15.9183 41.9123 11.2064 39.5327 10.3194 36.7443C10.3482 34.2899 11.6924 33.2016 13.4203 32.5149ZM6.78579 19.9707C8.40115 22.0682 10.7593 23.702 13.4607 25.0149L13.6193 25.0926L13.2213 31.1099C11.078 31.0236 9.81603 33.0764 8.70836 35.2486C6.18003 30.6853 4.78534 25.7851 6.78579 19.9707ZM18.3068 18.0561C25.661 19.9635 31.8773 13.4294 41.5781 18.285C44.004 22.0782 43.329 25.8139 42.9511 27.7889C39.9815 31.7808 21.9514 27.9098 15.614 24.2908C15.6486 22.0969 16.5688 20.024 18.3068 18.0561ZM16.8097 8.63862L16.7635 8.8344C16.0857 11.6991 15.0703 14.5609 16.8097 17.4659C15.4799 19.1617 14.7472 21.2231 14.0174 23.2831C10.6973 21.9012 8.46749 20.0096 7.62808 17.4659C10.5588 11.9193 14.0881 9.49947 16.8097 8.63862ZM33.3599 9.03881L33.6195 9.20868C35.4137 10.3834 36.7031 11.345 37.4863 12.0935C38.3084 12.8781 39.243 14.0657 40.2916 15.6593C33.6037 12.393 25.7605 17.3292 19.0611 16.8987C23.5351 11.8646 28.2081 9.05465 33.3599 9.03881ZM18.702 7.79793C22.9711 6.14389 26.7845 6.46203 30.3845 7.7461C25.1576 8.73219 21.2361 11.7452 18.0068 15.6607C16.6049 13.4957 18.8433 8.58536 18.702 7.79793Z" fill="#D97400"/>
<path opacity="0.25" fill-rule="evenodd" clip-rule="evenodd" d="M28.4916 43.3385C27.6882 43.0305 26.6137 42.4503 25.2695 41.5967C23.4291 41.994 21.3652 42.0429 19.0388 41.7378C19.2768 42.1955 19.8508 42.8448 20.7624 43.6855C23.3873 44.0641 26.0354 44.6759 28.4916 43.3385ZM38.5443 31.2031C39.4876 31.1125 41.364 30.9354 42.3159 30.7799C40.8246 34.7718 38.7174 39.4748 31.8189 42.5237C30.417 42.1826 28.1339 41.3779 27.2079 40.7718C34.4453 38.3966 38.0164 32.1115 38.5443 31.2031ZM39.2698 29.3245C41.1592 29.1763 42.4313 28.4781 42.9505 27.7785C43.3284 25.8034 44.0034 22.0678 41.5774 18.2746C41.1736 18.0722 40.7628 17.884 40.3457 17.7103C41.9495 21.7439 40.7121 26.4382 39.2698 29.3245ZM40.2924 15.6517C39.2438 14.0581 38.3078 12.8705 37.4871 12.086C36.6665 11.3014 35.2905 10.2837 33.3622 9.03125C36.2193 11.4137 38.0958 13.4435 38.9871 15.1205C39.427 15.2659 39.8626 15.4401 40.2924 15.6517Z" fill="black"/>
</g>
<path fill-rule="evenodd" clip-rule="evenodd" d="M40.5957 31.133L40.6229 31.1456C41.0678 31.3632 41.5889 32.1825 42.3723 36.2364C42.4444 36.7302 42.6045 37.5015 42.6819 38.3166C42.5283 38.4928 42.3528 38.6804 42.152 38.8704C41.5552 39.435 40.7534 39.8312 39.7473 40.0589C40.8415 39.9486 41.6876 39.6106 42.2849 39.046C42.4373 38.9022 42.5779 38.7607 42.7067 38.6253L42.7121 38.7134C42.783 39.9924 42.588 41.2845 41.4837 41.7095C40.0108 42.298 39.1121 40.8746 38.1721 38.0451L38.1425 37.9996C38.0433 37.8528 37.9381 37.7461 37.8164 37.7539C37.5033 38.0356 37.1783 38.183 36.8421 38.2154C37.1238 38.1566 37.3824 38.0154 37.5857 37.809C37.789 37.6027 37.9281 37.3404 37.9859 37.0546C38.0436 36.7688 38.0174 36.4721 37.9105 36.2013C37.8036 35.9304 37.6207 35.6974 37.3845 35.531C37.1483 35.3646 36.8691 35.2722 36.5816 35.2652C36.2941 35.2582 36.0109 35.337 35.767 35.4917C35.5232 35.6464 35.3295 35.8703 35.21 36.1356C35.0904 36.401 35.0502 36.6961 35.0944 36.9843V36.9981C35.0944 37.3217 35.2197 37.5771 35.3763 37.7533H32.4611C32.6447 37.5461 32.7453 37.2767 32.7429 36.9981C32.7429 36.566 32.6407 36.216 32.4357 35.9493C32.3042 35.7423 32.1242 35.5715 31.9117 35.4524C31.6993 35.3332 31.4611 35.2693 31.2183 35.2664C30.9756 35.2635 30.7359 35.3216 30.5207 35.4357C30.3056 35.5497 30.1216 35.7161 29.9854 35.9199C29.8491 36.1237 29.7647 36.3585 29.7399 36.6035C29.715 36.8484 29.7503 37.0958 29.8428 37.3235C29.9352 37.5512 30.0818 37.7522 30.2695 37.9083C30.4572 38.0645 30.6802 38.171 30.9184 38.2183C30.5698 38.1932 30.233 38.0463 29.9087 37.7539C29.7745 37.7455 29.6605 37.8749 29.553 38.0451L29.4963 38.213C28.5864 40.9034 27.7031 42.2585 26.2851 41.7263L26.2414 41.7095C25.039 41.2468 24.9143 39.7562 25.0378 38.3742C25.221 38.5821 25.4402 38.8099 25.6901 39.0454C26.2868 39.6106 27.1329 39.9486 28.2272 40.0583C27.221 39.8312 26.4192 39.435 25.8225 38.8704C25.5545 38.6148 25.3034 38.3415 25.0709 38.0523C25.1536 37.3367 25.2883 36.6763 25.3527 36.2364L25.4 35.9924C26.1758 32.0866 26.753 31.7731 27.1294 31.1324C27.989 30.8837 28.8133 30.8867 29.6192 31.0185C30.4256 31.1498 31.114 32.2664 31.3084 32.261C31.3497 32.1627 36.1993 32.2945 36.2436 32.3868C36.9467 31.5621 37.5683 31.106 38.1059 31.0185C38.9118 30.8867 39.736 30.8843 40.5957 31.133ZM34.6389 37.073H33.0862C33.0274 37.073 32.9711 37.0967 32.9295 37.1388C32.888 37.181 32.8646 37.2382 32.8646 37.2978V37.3223C32.8646 37.447 32.9639 37.5477 33.0862 37.5477H34.6389C34.668 37.5477 34.6969 37.5419 34.7238 37.5305C34.7507 37.5192 34.7752 37.5026 34.7958 37.4817C34.8164 37.4607 34.8327 37.4359 34.8438 37.4085C34.8549 37.3812 34.8605 37.3519 34.8605 37.3223V37.2984C34.8605 37.2688 34.8549 37.2395 34.8438 37.2122C34.8327 37.1848 34.8164 37.16 34.7958 37.1391C34.7752 37.1181 34.7507 37.1015 34.7238 37.0902C34.6969 37.0789 34.668 37.073 34.6389 37.073ZM39.1411 31.703C38.8621 31.703 38.5859 31.7587 38.3282 31.867C38.0705 31.9753 37.8364 32.134 37.6391 32.3341C37.4419 32.5341 37.2854 32.7717 37.1787 33.0331C37.0719 33.2945 37.017 33.5746 37.017 33.8576C37.017 34.1405 37.0719 34.4207 37.1787 34.6821C37.2854 34.9435 37.4419 35.1811 37.6391 35.3811C37.8364 35.5812 38.0705 35.7399 38.3282 35.8482C38.5859 35.9565 38.8621 36.0122 39.1411 36.0122C39.7044 36.0122 40.2447 35.7852 40.643 35.3811C41.0413 34.9771 41.2651 34.429 41.2651 33.8576C41.2651 33.2862 41.0413 32.7381 40.643 32.3341C40.2447 31.93 39.7044 31.703 39.1411 31.703ZM28.5178 31.703C28.2389 31.703 27.9627 31.7587 27.705 31.867C27.4473 31.9753 27.2131 32.134 27.0159 32.3341C26.8187 32.5341 26.6622 32.7717 26.5555 33.0331C26.4487 33.2945 26.3938 33.5746 26.3938 33.8576C26.3938 34.1405 26.4487 34.4207 26.5555 34.6821C26.6622 34.9435 26.8187 35.1811 27.0159 35.3811C27.2131 35.5812 27.4473 35.7399 27.705 35.8482C27.9627 35.9565 28.2389 36.0122 28.5178 36.0122C29.0812 36.0122 29.6214 35.7852 30.0198 35.3811C30.4181 34.9771 30.6419 34.429 30.6419 33.8576C30.6419 33.2862 30.4181 32.7381 30.0198 32.3341C29.6214 31.93 29.0812 31.703 28.5178 31.703Z" fill="#000825"/>
<path opacity="0.25" fill-rule="evenodd" clip-rule="evenodd" d="M42.3723 36.2365L42.3918 36.3624C42.6163 37.7786 43.3549 40.9898 41.4837 41.7096C40.7316 42.0099 40.1295 41.7863 39.5954 41.1193L39.7626 41.1229C40.513 41.1348 43.0081 40.9958 42.3723 36.2365ZM25.3255 38.686L25.3362 38.7519C25.7805 41.3404 27.8159 41.1175 28.1308 41.1193C27.6056 41.7743 27.0147 42.0015 26.2815 41.724L26.2425 41.709C25.0408 41.2469 24.9155 39.757 25.039 38.3755C25.1264 38.475 25.2222 38.5787 25.3255 38.686ZM25.3533 36.2365C25.2446 37.0528 25.2275 37.7336 25.2783 38.3006C25.2084 38.2195 25.1394 38.1376 25.0715 38.0549L25.0898 37.9062C25.1707 37.2691 25.286 36.6854 25.3474 36.2772L25.3533 36.2365ZM31.2174 35.4963C31.5239 35.4963 31.8178 35.6198 32.0345 35.8397C32.2513 36.0595 32.373 36.3577 32.373 36.6686C32.373 36.9795 32.2513 37.2777 32.0345 37.4976C31.8178 37.7174 31.5239 37.8409 31.2174 37.8409C30.9109 37.8409 30.6169 37.7174 30.4002 37.4976C30.1834 37.2777 30.0617 36.9795 30.0617 36.6686C30.0617 36.3577 30.1834 36.0595 30.4002 35.8397C30.6169 35.6198 30.9109 35.4963 31.2174 35.4963ZM36.5916 35.4963C36.8981 35.4963 37.192 35.6198 37.4088 35.8397C37.6255 36.0595 37.7473 36.3577 37.7473 36.6686C37.7473 36.9795 37.6255 37.2777 37.4088 37.4976C37.192 37.7174 36.8981 37.8409 36.5916 37.8409C36.2851 37.8409 35.9911 37.7174 35.7744 37.4976C35.5577 37.2777 35.4359 36.9795 35.4359 36.6686C35.4359 36.3577 35.5577 36.0595 35.7744 35.8397C35.9911 35.6198 36.2851 35.4963 36.5916 35.4963ZM34.6389 37.0732C34.7612 37.0732 34.8604 37.1738 34.8604 37.2979V37.3225C34.8605 37.352 34.8548 37.3813 34.8437 37.4087C34.8326 37.436 34.8163 37.4609 34.7958 37.4818C34.7752 37.5027 34.7507 37.5193 34.7238 37.5307C34.6969 37.542 34.668 37.5478 34.6389 37.5478H33.0862C33.057 37.5478 33.0282 37.542 33.0012 37.5307C32.9743 37.5193 32.9499 37.5027 32.9293 37.4818C32.9087 37.4609 32.8924 37.436 32.8813 37.4087C32.8702 37.3813 32.8645 37.352 32.8646 37.3225V37.2985C32.8646 37.1738 32.9639 37.0732 33.0862 37.0732H34.6389ZM39.141 31.7031C39.42 31.7031 39.6962 31.7589 39.9539 31.8671C40.2116 31.9754 40.4457 32.1341 40.643 32.3342C40.8402 32.5343 40.9967 32.7718 41.1034 33.0332C41.2102 33.2946 41.2651 33.5748 41.2651 33.8577C41.2651 34.1407 41.2102 34.4209 41.1034 34.6823C40.9967 34.9437 40.8402 35.1812 40.643 35.3813C40.4457 35.5813 40.2116 35.7401 39.9539 35.8483C39.6962 35.9566 39.42 36.0123 39.141 36.0123C38.5777 36.0123 38.0374 35.7853 37.6391 35.3813C37.2408 34.9772 37.017 34.4292 37.017 33.8577C37.017 33.2863 37.2408 32.7383 37.6391 32.3342C38.0374 31.9301 38.5777 31.7031 39.141 31.7031ZM28.5178 31.7031C28.7968 31.7031 29.073 31.7589 29.3307 31.8671C29.5884 31.9754 29.8225 32.1341 30.0198 32.3342C30.217 32.5343 30.3735 32.7718 30.4802 33.0332C30.5869 33.2946 30.6419 33.5748 30.6419 33.8577C30.6419 34.1407 30.5869 34.4209 30.4802 34.6823C30.3735 34.9437 30.217 35.1812 30.0198 35.3813C29.8225 35.5813 29.5884 35.7401 29.3307 35.8483C29.073 35.9566 28.7968 36.0123 28.5178 36.0123C27.9545 36.0123 27.4142 35.7853 27.0159 35.3813C26.6176 34.9772 26.3938 34.4292 26.3938 33.8577C26.3938 33.2863 26.6176 32.7383 27.0159 32.3342C27.4142 31.9301 27.9545 31.7031 28.5178 31.7031Z" fill="white"/>
<path d="M28.5297 35.673C29.5286 35.673 30.3383 34.8517 30.3383 33.8385C30.3383 32.8253 29.5286 32.0039 28.5297 32.0039C27.5309 32.0039 26.7212 32.8253 26.7212 33.8385C26.7212 34.8517 27.5309 35.673 28.5297 35.673Z" fill="#000825"/>
<path d="M39.1611 33.2534C39.4875 33.2534 39.752 32.985 39.752 32.654C39.752 32.323 39.4875 32.0547 39.1611 32.0547C38.8348 32.0547 38.5703 32.323 38.5703 32.654C38.5703 32.985 38.8348 33.2534 39.1611 33.2534Z" fill="#BF2222"/>
<path d="M39.1611 35.644C39.4875 35.644 39.752 35.3757 39.752 35.0446C39.752 34.7136 39.4875 34.4453 39.1611 34.4453C38.8348 34.4453 38.5703 34.7136 38.5703 35.0446C38.5703 35.3757 38.8348 35.644 39.1611 35.644Z" fill="#3F7BBF"/>
<path fill-rule="evenodd" clip-rule="evenodd" d="M38.5703 33.8487C38.5703 34.0065 38.5085 34.1578 38.3985 34.2694C38.2885 34.3809 38.1394 34.4436 37.9839 34.4436C37.8283 34.4436 37.6792 34.3809 37.5692 34.2694C37.4592 34.1578 37.3975 34.0065 37.3975 33.8487C37.3975 33.691 37.4592 33.5397 37.5692 33.4281C37.6792 33.3166 37.8283 33.2539 37.9839 33.2539C38.1394 33.2539 38.2885 33.3166 38.3985 33.4281C38.5085 33.5397 38.5703 33.691 38.5703 33.8487Z" fill="#E6CA19"/>
<path fill-rule="evenodd" clip-rule="evenodd" d="M40.9249 33.8484C40.9249 33.9265 40.9097 34.0038 40.8803 34.076C40.8508 34.1481 40.8077 34.2136 40.7532 34.2688C40.6988 34.3241 40.6342 34.3679 40.5631 34.3977C40.492 34.4276 40.4158 34.443 40.3388 34.443C40.2618 34.443 40.1856 34.4276 40.1145 34.3977C40.0434 34.3679 39.9788 34.3241 39.9244 34.2688C39.8699 34.2136 39.8268 34.1481 39.7973 34.076C39.7678 34.0038 39.7527 33.9265 39.7527 33.8484C39.7527 33.6908 39.8144 33.5395 39.9244 33.428C40.0343 33.3165 40.1833 33.2539 40.3388 33.2539C40.4942 33.2539 40.6433 33.3165 40.7532 33.428C40.8632 33.5395 40.9249 33.6908 40.9249 33.8484Z" fill="#14805E"/>
<path d="M39.1611 33.2516C39.3165 33.2516 39.4656 33.1889 39.5755 33.0774C39.6855 32.9659 39.7472 32.8147 39.7472 32.657C39.7472 32.4994 39.6855 32.3481 39.5755 32.2366C39.4656 32.1251 39.3165 32.0625 39.1611 32.0625C39.0057 32.0625 38.8566 32.1251 38.7467 32.2366C38.6367 32.3481 38.575 32.4994 38.575 32.657C38.575 32.8147 38.6367 32.9659 38.7467 33.0774C38.8566 33.1889 39.0057 33.2516 39.1611 33.2516ZM39.1611 33.1461C39.0332 33.1461 38.9106 33.0946 38.8202 33.0029C38.7298 32.9111 38.679 32.7867 38.679 32.657C38.679 32.5273 38.7298 32.4029 38.8202 32.3112C38.9106 32.2195 39.0332 32.168 39.1611 32.168C39.289 32.168 39.4116 32.2195 39.502 32.3112C39.5924 32.4029 39.6432 32.5273 39.6432 32.657C39.6432 32.7867 39.5924 32.9111 39.502 33.0029C39.4116 33.0946 39.289 33.1461 39.1611 33.1461ZM39.1611 35.6405C39.3165 35.6405 39.4656 35.5779 39.5755 35.4664C39.6855 35.3549 39.7472 35.2037 39.7472 35.046C39.7472 34.8883 39.6855 34.7371 39.5755 34.6256C39.4656 34.5141 39.3165 34.4514 39.1611 34.4514C39.0057 34.4514 38.8566 34.5141 38.7467 34.6256C38.6367 34.7371 38.575 34.8883 38.575 35.046C38.575 35.2037 38.6367 35.3549 38.7467 35.4664C38.8566 35.5779 39.0057 35.6405 39.1611 35.6405ZM39.1611 35.5344C39.0959 35.5377 39.0306 35.5275 38.9694 35.5045C38.9082 35.4814 38.8522 35.4459 38.8049 35.4003C38.7576 35.3546 38.7199 35.2996 38.6941 35.2387C38.6684 35.1778 38.6551 35.1122 38.6551 35.046C38.6551 34.9797 38.6684 34.9142 38.6941 34.8533C38.7199 34.7924 38.7576 34.7374 38.8049 34.6917C38.8522 34.646 38.9082 34.6106 38.9694 34.5875C39.0306 34.5645 39.0959 34.5542 39.1611 34.5575C39.2847 34.5637 39.4012 34.6179 39.4865 34.7088C39.5718 34.7998 39.6194 34.9205 39.6194 35.046C39.6194 35.1715 39.5718 35.2922 39.4865 35.3831C39.4012 35.4741 39.2847 35.5282 39.1611 35.5344ZM38.5703 33.8515C38.5703 34.0093 38.5085 34.1606 38.3985 34.2721C38.2885 34.3837 38.1394 34.4464 37.9839 34.4464C37.8283 34.4464 37.6792 34.3837 37.5692 34.2721C37.4592 34.1606 37.3975 34.0093 37.3975 33.8515C37.3975 33.6938 37.4592 33.5425 37.5692 33.4309C37.6792 33.3193 37.8283 33.2567 37.9839 33.2567C38.1394 33.2567 38.2885 33.3193 38.3985 33.4309C38.5085 33.5425 38.5703 33.6938 38.5703 33.8515ZM38.4657 33.8515C38.468 33.7859 38.4572 33.7205 38.434 33.6592C38.4108 33.5979 38.3757 33.5419 38.3307 33.4947C38.2857 33.4474 38.2318 33.4099 38.1723 33.3842C38.1127 33.3586 38.0486 33.3453 37.9839 33.3453C37.9191 33.3453 37.8551 33.3586 37.7955 33.3842C37.7359 33.4099 37.682 33.4474 37.637 33.4947C37.5921 33.5419 37.5569 33.5979 37.5338 33.6592C37.5106 33.7205 37.4998 33.7859 37.502 33.8515C37.5064 33.9782 37.5591 34.0982 37.649 34.1862C37.7389 34.2742 37.8589 34.3235 37.9839 34.3235C38.1088 34.3235 38.2289 34.2742 38.3188 34.1862C38.4086 34.0982 38.4613 33.9782 38.4657 33.8515ZM40.9247 33.8515C40.9247 33.9296 40.9096 34.0069 40.8801 34.079C40.8507 34.1512 40.8075 34.2167 40.7531 34.2719C40.6987 34.3271 40.634 34.3709 40.5629 34.4008C40.4918 34.4307 40.4156 34.4461 40.3386 34.4461C40.2617 34.4461 40.1855 34.4307 40.1143 34.4008C40.0432 34.3709 39.9786 34.3271 39.9242 34.2719C39.8698 34.2167 39.8266 34.1512 39.7971 34.079C39.7677 34.0069 39.7525 33.9296 39.7525 33.8515C39.7525 33.6938 39.8143 33.5426 39.9242 33.4311C40.0341 33.3196 40.1832 33.257 40.3386 33.257C40.4941 33.257 40.6432 33.3196 40.7531 33.4311C40.863 33.5426 40.9247 33.6938 40.9247 33.8515ZM40.8208 33.8515C40.823 33.7859 40.8122 33.7205 40.789 33.6592C40.7659 33.5979 40.7307 33.5419 40.6858 33.4947C40.6408 33.4474 40.5869 33.4099 40.5273 33.3842C40.4677 33.3586 40.4037 33.3453 40.3389 33.3453C40.2742 33.3453 40.2101 33.3586 40.1505 33.3842C40.091 33.4099 40.0371 33.4474 39.9921 33.4947C39.9471 33.5419 39.912 33.5979 39.8888 33.6592C39.8656 33.7205 39.8548 33.7859 39.8571 33.8515C39.8632 33.9769 39.9166 34.095 40.0063 34.1816C40.0959 34.2681 40.2149 34.3164 40.3386 34.3164C40.4624 34.3164 40.5814 34.2681 40.671 34.1816C40.7606 34.095 40.814 33.9769 40.8202 33.8515H40.8208Z" fill="white"/>
<path d="M31.2344 37.5514C31.7131 37.5514 32.1012 37.1578 32.1012 36.6722C32.1012 36.1866 31.7131 35.793 31.2344 35.793C30.7557 35.793 30.3677 36.1866 30.3677 36.6722C30.3677 37.1578 30.7557 37.5514 31.2344 37.5514Z" fill="white"/>
<path d="M36.5745 37.5514C37.0532 37.5514 37.4413 37.1578 37.4413 36.6722C37.4413 36.1866 37.0532 35.793 36.5745 35.793C36.0958 35.793 35.7078 36.1866 35.7078 36.6722C35.7078 37.1578 36.0958 37.5514 36.5745 37.5514Z" fill="white"/>
<path opacity="0.25" fill-rule="evenodd" clip-rule="evenodd" d="M36.5746 37.5514C36.8936 37.3944 37.0833 37.1115 37.0833 36.6722C37.0833 36.2323 36.7749 35.8715 36.5752 35.793C36.689 35.793 36.8017 35.8157 36.9069 35.8599C37.012 35.9041 37.1076 35.9688 37.1881 36.0505C37.2686 36.1321 37.3324 36.2291 37.376 36.3357C37.4195 36.4424 37.4419 36.5567 37.4419 36.6722C37.4419 36.7877 37.4195 36.902 37.376 37.0087C37.3324 37.1153 37.2686 37.2123 37.1881 37.2939C37.1076 37.3755 37.012 37.4403 36.9069 37.4845C36.8017 37.5287 36.6884 37.5514 36.5746 37.5514ZM31.2346 37.5514C31.5537 37.3944 31.7433 37.1115 31.7433 36.6722C31.7433 36.2323 31.4349 35.8715 31.2346 35.793C31.3484 35.793 31.4612 35.8157 31.5663 35.8599C31.6715 35.9041 31.767 35.9688 31.8475 36.0505C31.928 36.1321 31.9918 36.2291 32.0354 36.3357C32.079 36.4424 32.1014 36.5567 32.1014 36.6722C32.1014 36.7877 32.079 36.902 32.0354 37.0087C31.9918 37.1153 31.928 37.2123 31.8475 37.2939C31.767 37.3755 31.6715 37.4403 31.5663 37.4845C31.4612 37.5287 31.3484 37.5514 31.2346 37.5514Z" fill="white"/>
<path fill-rule="evenodd" clip-rule="evenodd" d="M28.3975 32.3867H28.6634C28.7574 32.3867 28.833 32.464 28.833 32.5593V33.2414L28.508 33.4368L28.2274 33.2414V32.5593C28.2274 32.4634 28.3036 32.3867 28.3975 32.3867ZM28.3975 35.2905C28.3524 35.2905 28.3091 35.2723 28.2772 35.2399C28.2453 35.2076 28.2274 35.1637 28.2274 35.1179V34.4358L28.508 34.2411L28.833 34.4358V35.1179C28.833 35.1636 28.8151 35.2074 28.7833 35.2397C28.7516 35.2721 28.7084 35.2903 28.6634 35.2905H28.3975ZM27.0989 33.9738V33.7041C27.0989 33.6082 27.1751 33.5314 27.269 33.5314H27.9414L28.1334 33.8611L27.9414 34.1458H27.269C27.224 34.1458 27.1808 34.1277 27.1489 34.0954C27.117 34.0632 27.099 34.0194 27.0989 33.9738ZM29.9615 33.9738C29.9613 34.0194 29.9433 34.0632 29.9114 34.0954C29.8795 34.1277 29.8363 34.1458 29.7913 34.1458H29.1189L28.9263 33.8611L29.1189 33.5314H29.7919C29.8864 33.5314 29.9621 33.6088 29.9621 33.7035V33.9732L29.9615 33.9738Z" fill="white"/>
<path fill-rule="evenodd" clip-rule="evenodd" d="M27.1206 30.2142C27.9265 29.9793 28.7596 29.9278 29.5608 30.1088L29.5826 30.5583C28.7549 30.4204 27.923 30.4767 27.1419 30.6637L27.1206 30.2142ZM40.6082 30.2142C39.8017 29.9793 38.9692 29.9278 38.1674 30.1088L38.1462 30.5583C38.9739 30.4204 39.8058 30.4767 40.5863 30.6637L40.6082 30.2142Z" fill="#000825"/>
</svg>
