<svg width="50" height="50" viewBox="0 0 50 50" fill="none" xmlns="http://www.w3.org/2000/svg">
<mask id="mask0_118_122" style="mask-type:alpha" maskUnits="userSpaceOnUse" x="5" y="6" width="39" height="39">
<path fill-rule="evenodd" clip-rule="evenodd" d="M21.3354 6.94509C22.4033 6.75984 23.4852 6.66713 24.569 6.66797C28.0449 6.66797 31.3015 7.61624 34.0923 9.26884L33.6741 10.1695C31.3621 9.49977 28.8454 9.32802 26.9026 9.74803C25.3118 8.89069 23.7267 8.45625 20.8523 7.94676C20.9359 7.65088 21.1696 7.17458 21.3167 6.97252L21.3354 6.94509ZM26.6286 9.90968C26.232 11.4468 26.1829 12.4398 26.2824 14.3695L26.2853 14.4128C26.3171 15.0046 26.3286 15.2832 26.3329 15.6223C24.0094 16.5547 21.9556 17.8234 19.5427 19.6954L19.449 19.6406C17.5769 18.5407 15.9933 18.0486 13.2429 17.555C13.1376 16.2271 13.1679 15.1302 13.3121 14.1632C13.4188 13.453 13.5587 12.919 13.8169 12.1353H13.8241V12.1151L13.8385 12.0747C16.0149 10.4249 18.3846 9.06533 20.6417 8.18924C23.5464 8.69873 25.0724 9.0841 26.6286 9.90968ZM12.9732 17.6315C12.0678 18.5771 11.2936 19.6402 10.6713 20.7923C10.1896 21.6728 9.88093 22.3742 9.24345 23.946L9.06749 24.3804L9.0098 24.3876C8.3752 24.4598 8.04781 24.4988 7.67282 24.5594C7.00216 24.6662 6.41804 24.8048 5.84546 25.0068C5.9355 20.4898 7.65932 16.1586 10.6973 12.8165L10.6987 12.8209L10.8227 12.7602C11.6602 12.3323 12.5896 12.1158 13.5299 12.1295C13.3061 12.7771 13.1419 13.4438 13.0395 14.1213C12.891 15.1201 12.8607 16.256 12.9732 17.6257V17.63V17.6315ZM13.6409 37.6417C15.438 39.0172 17.6418 40.3436 20.4384 41.7869C20.5624 42.51 20.7499 43.1696 21.0037 43.8104C17.0101 43.0361 13.3776 40.9799 10.6569 37.9534C11.6361 38.0164 12.6189 37.9174 13.5659 37.6604L13.6409 37.6417ZM13.3626 30.8696C16.0697 30.2317 17.8538 29.5663 19.6105 28.4188C21.308 29.7669 23.1094 30.7744 26.2954 32.2927C26.0791 34.6237 26.1714 36.7916 26.6055 38.8353L26.6199 38.9031C25.1993 39.9885 23.3676 40.7549 20.5999 41.5589C17.7528 40.0939 14.4948 37.9534 13.6914 37.3631C12.9616 34.5429 13.2313 32.4962 13.3453 31.0746L13.3626 30.8696ZM19.4792 28.0667L19.4547 28.0811C17.7096 29.2314 15.9356 29.891 13.1996 30.5304C11.3088 28.6426 10.0554 26.6768 9.4295 24.4685L9.58527 24.0846C10.217 22.5243 10.5227 21.833 10.9944 20.967C11.6001 19.8556 12.3068 18.8698 13.2068 17.9216C15.901 18.4065 17.4428 18.8857 19.2643 19.9566L19.3018 19.9783L19.4792 28.0667ZM26.669 32.2494C28.7458 30.9071 31.0088 29.5793 33.4621 28.2586L33.4938 28.2774C35.0082 29.2098 36.4129 30.5405 37.8494 32.427C36.8687 35.1794 35.5851 37.2996 33.863 38.857L33.7794 38.8772C31.3737 39.4473 29.1064 39.391 26.943 38.6578C26.5305 36.6588 26.4483 34.5357 26.669 32.2494ZM33.9928 39.137C35.7856 37.5277 37.1326 35.2847 38.1379 32.4371C39.7893 31.5191 41.1407 30.4265 42.2065 29.1001C42.3796 29.6688 42.4734 30.2288 42.5123 30.796C41.1781 35.2306 38.254 39.0157 34.3015 41.4246C34.2791 41.2136 34.2656 41.0017 34.2611 40.7896C34.2569 40.2282 34.1664 39.6708 33.9928 39.137ZM42.7099 30.0816C42.6456 29.6571 42.5452 29.239 42.4099 28.8316L42.4128 28.8028C42.7445 25.8786 42.7214 23.2214 42.2873 20.6725L42.5657 20.202C43.0416 21.8561 43.2969 23.6025 43.2969 25.4081C43.2969 27.0217 43.095 28.5877 42.7099 30.0816ZM42.2008 20.2828L42.0191 20.316C40.721 18.5047 39.3739 17.2288 37.9735 16.497C37.2179 14.1021 35.8081 11.9664 33.9034 10.3311L34.3303 9.41173C38.2146 11.7888 41.1034 15.4973 42.4589 19.847L42.2008 20.2828ZM33.6005 10.435L33.6438 10.4726C35.5283 12.0642 36.9281 14.1537 37.6836 16.5028C36.7028 17.643 35.4913 18.5061 33.5601 19.5684C31.0217 18.3286 28.7256 17.0195 26.6069 15.5791C26.6026 15.2529 26.5896 14.9729 26.5608 14.3984L26.5579 14.3551C26.4613 12.4759 26.506 11.5074 26.881 10.0352C28.7848 9.60225 31.2972 9.76679 33.6005 10.435Z" fill="#D7D1D1"/>
<path fill-rule="evenodd" clip-rule="evenodd" d="M19.5708 20.0043C21.9996 18.053 24.2913 16.7612 26.5081 15.8288C28.7065 17.328 31.0183 18.6536 33.4223 19.7936V27.8459C31.0772 29.116 28.7249 30.454 26.348 32.0027C23.3841 30.6604 21.3318 29.3946 19.7511 28.1707L19.5708 20.0029V20.0043ZM5.83603 25.2811C6.7735 24.9275 8.47827 24.6518 9.09844 24.6432L9.13739 24.776C9.54411 26.111 10.5407 28.4795 13.0777 30.9202L13.0402 31.3041C12.8584 33.231 12.8383 35.2097 13.444 37.3949C12.1863 37.7327 11.184 37.6966 10.4051 37.6518C7.82925 34.8735 5.74661 29.9633 5.83603 25.2811ZM20.9597 7L20.8443 7.2165C20.7477 7.40413 20.6207 7.67403 20.5732 7.90352L20.3655 7.98579C19.0141 8.52992 16.5535 9.64994 13.6704 11.8423C12.6349 11.8221 11.8186 12.0098 11.1796 12.2854L11.3239 12.1411C13.033 10.4423 16.0574 7.95837 20.9597 7ZM21.3145 43.8552L21.1818 43.5117C20.9698 42.9555 20.8109 42.3804 20.7073 41.7942L20.8429 41.7509C21.8279 41.4521 24.9216 40.6323 26.9004 39.0129C28.6744 39.6133 30.9359 39.8847 33.7368 39.2467C34.0036 39.8385 33.9949 41.1259 34.0368 41.5633C30.1715 43.7932 25.7927 44.6505 21.3145 43.8552ZM33.6978 19.7936C35.241 19.007 36.6977 17.975 37.8443 16.7266C39.4626 17.5521 41.1371 19.453 42.0269 20.7996C42.4639 23.4986 42.3774 26.1211 42.138 28.7206L41.9851 28.9053C41.2452 29.7944 40.0957 31.027 38.0145 32.1788L37.7852 31.8858C36.2506 29.9373 35.2036 29.0713 33.6964 28.0696L33.6978 19.7936Z" fill="#D7D1D1"/>
<path opacity="0.25" fill-rule="evenodd" clip-rule="evenodd" d="M9.64917 36.7076C15.8726 44.972 27.6155 46.6232 35.8754 40.3953C44.1353 34.1659 45.7853 22.4158 39.5619 14.1484C41.708 23.0595 39.8056 30.1722 31.5443 36.4002C23.2844 42.6295 12.965 39.6765 9.64917 36.7076Z" fill="#D7D1D1"/>
</mask>
<g mask="url(#mask0_118_122)">
<path fill-rule="evenodd" clip-rule="evenodd" d="M21.3354 6.94509C22.4033 6.75984 23.4852 6.66713 24.569 6.66797C28.0449 6.66797 31.3015 7.61624 34.0923 9.26884L33.6741 10.1695C31.3621 9.49977 28.8454 9.32802 26.9026 9.74803C25.3118 8.89069 23.7267 8.45625 20.8523 7.94676C20.9359 7.65088 21.1696 7.17458 21.3167 6.97252L21.3354 6.94509ZM26.6286 9.90968C26.232 11.4468 26.1829 12.4398 26.2824 14.3695L26.2853 14.4128C26.3171 15.0046 26.3286 15.2832 26.3329 15.6223C24.0094 16.5547 21.9556 17.8234 19.5427 19.6954L19.449 19.6406C17.5769 18.5407 15.9933 18.0486 13.2429 17.555C13.1376 16.2271 13.1679 15.1302 13.3121 14.1632C13.4188 13.453 13.5587 12.919 13.8169 12.1353H13.8241V12.1151L13.8385 12.0747C16.0149 10.4249 18.3846 9.06533 20.6417 8.18924C23.5464 8.69873 25.0724 9.0841 26.6286 9.90968ZM12.9732 17.6315C12.0678 18.5771 11.2936 19.6402 10.6713 20.7923C10.1896 21.6728 9.88093 22.3742 9.24345 23.946L9.06749 24.3804L9.0098 24.3876C8.3752 24.4598 8.04781 24.4988 7.67282 24.5594C7.00216 24.6662 6.41804 24.8048 5.84546 25.0068C5.9355 20.4898 7.65932 16.1586 10.6973 12.8165L10.6987 12.8209L10.8227 12.7602C11.6602 12.3323 12.5896 12.1158 13.5299 12.1295C13.3061 12.7771 13.1419 13.4438 13.0395 14.1213C12.891 15.1201 12.8607 16.256 12.9732 17.6257V17.63V17.6315ZM13.6409 37.6417C15.438 39.0172 17.6418 40.3436 20.4384 41.7869C20.5624 42.51 20.7499 43.1696 21.0037 43.8104C17.0101 43.0361 13.3776 40.9799 10.6569 37.9534C11.6361 38.0164 12.6189 37.9174 13.5659 37.6604L13.6409 37.6417ZM13.3626 30.8696C16.0697 30.2317 17.8538 29.5663 19.6105 28.4188C21.308 29.7669 23.1094 30.7744 26.2954 32.2927C26.0791 34.6237 26.1714 36.7916 26.6055 38.8353L26.6199 38.9031C25.1993 39.9885 23.3676 40.7549 20.5999 41.5589C17.7528 40.0939 14.4948 37.9534 13.6914 37.3631C12.9616 34.5429 13.2313 32.4962 13.3453 31.0746L13.3626 30.8696ZM19.4792 28.0667L19.4547 28.0811C17.7096 29.2314 15.9356 29.891 13.1996 30.5304C11.3088 28.6426 10.0554 26.6768 9.4295 24.4685L9.58527 24.0846C10.217 22.5243 10.5227 21.833 10.9944 20.967C11.6001 19.8556 12.3068 18.8698 13.2068 17.9216C15.901 18.4065 17.4428 18.8857 19.2643 19.9566L19.3018 19.9783L19.4792 28.0667ZM26.669 32.2494C28.7458 30.9071 31.0088 29.5793 33.4621 28.2586L33.4938 28.2774C35.0082 29.2098 36.4129 30.5405 37.8494 32.427C36.8687 35.1794 35.5851 37.2996 33.863 38.857L33.7794 38.8772C31.3737 39.4473 29.1064 39.391 26.943 38.6578C26.5305 36.6588 26.4483 34.5357 26.669 32.2494ZM33.9928 39.137C35.7856 37.5277 37.1326 35.2847 38.1379 32.4371C39.7893 31.5191 41.1407 30.4265 42.2065 29.1001C42.3796 29.6688 42.4734 30.2288 42.5123 30.796C41.1781 35.2306 38.254 39.0157 34.3015 41.4246C34.2791 41.2136 34.2656 41.0017 34.2611 40.7896C34.2569 40.2282 34.1664 39.6708 33.9928 39.137ZM42.7099 30.0816C42.6456 29.6571 42.5452 29.239 42.4099 28.8316L42.4128 28.8028C42.7445 25.8786 42.7214 23.2214 42.2873 20.6725L42.5657 20.202C43.0416 21.8561 43.2969 23.6025 43.2969 25.4081C43.2969 27.0217 43.095 28.5877 42.7099 30.0816ZM42.2008 20.2828L42.0191 20.316C40.721 18.5047 39.3739 17.2288 37.9735 16.497C37.2179 14.1021 35.8081 11.9664 33.9034 10.3311L34.3303 9.41173C38.2146 11.7888 41.1034 15.4973 42.4589 19.847L42.2008 20.2828ZM33.6005 10.435L33.6438 10.4726C35.5283 12.0642 36.9281 14.1537 37.6836 16.5028C36.7028 17.643 35.4913 18.5061 33.5601 19.5684C31.0217 18.3286 28.7256 17.0195 26.6069 15.5791C26.6026 15.2529 26.5896 14.9729 26.5608 14.3984L26.5579 14.3551C26.4613 12.4759 26.506 11.5074 26.881 10.0352C28.7848 9.60225 31.2972 9.76679 33.6005 10.435Z" fill="white"/>
<path fill-rule="evenodd" clip-rule="evenodd" d="M19.5708 20.0043C21.9996 18.053 24.2913 16.7612 26.5081 15.8288C28.7065 17.328 31.0183 18.6536 33.4223 19.7936V27.8459C31.0772 29.116 28.7249 30.454 26.348 32.0027C23.3841 30.6604 21.3318 29.3946 19.7511 28.1707L19.5708 20.0029V20.0043ZM5.83603 25.2811C6.7735 24.9275 8.47827 24.6518 9.09844 24.6432L9.13739 24.776C9.54411 26.111 10.5407 28.4795 13.0777 30.9202L13.0402 31.3041C12.8584 33.231 12.8383 35.2097 13.444 37.3949C12.1863 37.7327 11.184 37.6966 10.4051 37.6518C7.82925 34.8735 5.74661 29.9633 5.83603 25.2811ZM20.9597 7L20.8443 7.2165C20.7477 7.40413 20.6207 7.67403 20.5732 7.90352L20.3655 7.98579C19.0141 8.52992 16.5535 9.64994 13.6704 11.8423C12.6349 11.8221 11.8186 12.0098 11.1796 12.2854L11.3239 12.1411C13.033 10.4423 16.0574 7.95837 20.9597 7ZM21.3145 43.8552L21.1818 43.5117C20.9698 42.9555 20.8109 42.3804 20.7073 41.7942L20.8429 41.7509C21.8279 41.4521 24.9216 40.6323 26.9004 39.0129C28.6744 39.6133 30.9359 39.8847 33.7368 39.2467C34.0036 39.8385 33.9949 41.1259 34.0368 41.5633C30.1715 43.7932 25.7927 44.6505 21.3145 43.8552ZM33.6978 19.7936C35.241 19.007 36.6977 17.975 37.8443 16.7266C39.4626 17.5521 41.1371 19.453 42.0269 20.7996C42.4639 23.4986 42.3774 26.1211 42.138 28.7206L41.9851 28.9053C41.2452 29.7944 40.0957 31.027 38.0145 32.1788L37.7852 31.8858C36.2506 29.9373 35.2036 29.0713 33.6964 28.0696L33.6978 19.7936Z" fill="black" fill-opacity="0.76"/>
<path opacity="0.25" fill-rule="evenodd" clip-rule="evenodd" d="M9.64917 36.7076C15.8726 44.972 27.6155 46.6232 35.8754 40.3953C44.1353 34.1659 45.7853 22.4158 39.5619 14.1484C41.708 23.0595 39.8056 30.1722 31.5443 36.4002C23.2844 42.6295 12.965 39.6765 9.64917 36.7076Z" fill="black"/>
</g>
<path fill-rule="evenodd" clip-rule="evenodd" d="M41.4289 30.301L41.4561 30.3136C41.901 30.5311 42.4221 31.3505 43.2056 35.4045C43.2777 35.8984 43.4378 36.6698 43.5152 37.4849C43.3616 37.6611 43.1861 37.8487 42.9852 38.0387C42.3885 38.6033 41.5867 38.9995 40.5805 39.2272C41.6747 39.1169 42.5208 38.7789 43.1181 38.2143C43.2706 38.0705 43.4112 37.929 43.54 37.7936L43.5453 37.8817C43.6162 39.1607 43.4212 40.4529 42.317 40.8778C40.844 41.4664 39.9454 40.0429 39.0053 37.2134L38.9758 37.1678C38.8765 37.021 38.7714 36.9143 38.6497 36.9221C38.3365 37.2038 38.0116 37.3512 37.6754 37.3836C37.9571 37.3249 38.2156 37.1836 38.4189 36.9772C38.6222 36.7709 38.7614 36.5086 38.8191 36.2228C38.8769 35.937 38.8507 35.6403 38.7438 35.3694C38.6369 35.0986 38.454 34.8655 38.2177 34.6991C37.9815 34.5327 37.7023 34.4403 37.4148 34.4333C37.1273 34.4263 36.8441 34.5051 36.6003 34.6598C36.3565 34.8146 36.1628 35.0385 36.0432 35.3038C35.9237 35.5691 35.8835 35.8642 35.9277 36.1525V36.1663C35.9277 36.49 36.0529 36.7453 36.2095 36.9215H33.2943C33.478 36.7143 33.5785 36.4449 33.5762 36.1663C33.5762 35.7342 33.4739 35.3841 33.2689 35.1174C33.1374 34.9104 32.9574 34.7397 32.745 34.6205C32.5326 34.5013 32.2943 34.4374 32.0516 34.4345C31.8088 34.4316 31.5691 34.4898 31.354 34.6038C31.1388 34.7179 30.9549 34.8842 30.8186 35.088C30.6823 35.2918 30.598 35.5267 30.5731 35.7717C30.5482 36.0166 30.5836 36.264 30.676 36.4917C30.7684 36.7195 30.9151 36.9204 31.1028 37.0765C31.2905 37.2327 31.5134 37.3392 31.7517 37.3866C31.4031 37.3614 31.0663 37.2146 30.7419 36.9221C30.6078 36.9137 30.4938 37.0432 30.3862 37.2134L30.3295 37.3812C29.4196 40.0717 28.5363 41.4269 27.1183 40.8946L27.0746 40.8778C25.8723 40.4151 25.7476 38.9245 25.8711 37.5424C26.0542 37.7504 26.2734 37.9782 26.5234 38.2137C27.1201 38.7789 27.9662 39.1169 29.0604 39.2266C28.0542 38.9995 27.2524 38.6033 26.6557 38.0387C26.3878 37.783 26.1367 37.5097 25.9042 37.2206C25.9869 36.5049 26.1216 35.8444 26.186 35.4045L26.2333 35.1606C27.009 31.2546 27.5863 30.9411 27.9626 30.3004C28.8223 30.0517 29.6465 30.0547 30.4524 30.1865C31.2589 30.3178 31.9472 31.4344 32.1416 31.429C32.183 31.3307 37.0325 31.4625 37.0769 31.5548C37.7799 30.7301 38.4015 30.274 38.9392 30.1865C39.7451 30.0547 40.5693 30.0523 41.4289 30.301ZM35.4721 36.2412H33.9194C33.8607 36.2412 33.8043 36.2649 33.7628 36.3071C33.7212 36.3492 33.6979 36.4064 33.6979 36.466V36.4906C33.6979 36.6152 33.7971 36.7159 33.9194 36.7159H35.4721C35.5013 36.7159 35.5301 36.7101 35.5571 36.6987C35.584 36.6874 35.6084 36.6708 35.629 36.6499C35.6496 36.6289 35.6659 36.6041 35.677 36.5767C35.6881 36.5494 35.6938 36.5201 35.6937 36.4906V36.4666C35.6938 36.437 35.6881 36.4077 35.677 36.3804C35.6659 36.353 35.6496 36.3282 35.629 36.3073C35.6084 36.2863 35.584 36.2697 35.5571 36.2584C35.5301 36.2471 35.5013 36.2412 35.4721 36.2412ZM39.9743 30.871C39.6954 30.871 39.4192 30.9267 39.1615 31.035C38.9038 31.1433 38.6696 31.302 38.4724 31.5021C38.2751 31.7022 38.1187 31.9397 38.0119 32.2011C37.9052 32.4625 37.8503 32.7427 37.8503 33.0257C37.8503 33.3086 37.9052 33.5888 38.0119 33.8502C38.1187 34.1117 38.2751 34.3492 38.4724 34.5493C38.6696 34.7493 38.9038 34.9081 39.1615 35.0163C39.4192 35.1246 39.6954 35.1804 39.9743 35.1804C40.5376 35.1804 41.0779 34.9533 41.4762 34.5493C41.8746 34.1452 42.0984 33.5971 42.0984 33.0257C42.0984 32.4542 41.8746 31.9062 41.4762 31.5021C41.0779 31.098 40.5376 30.871 39.9743 30.871ZM29.3511 30.871C29.0722 30.871 28.796 30.9267 28.5383 31.035C28.2806 31.1433 28.0464 31.302 27.8492 31.5021C27.6519 31.7022 27.4955 31.9397 27.3887 32.2011C27.282 32.4625 27.227 32.7427 27.227 33.0257C27.227 33.3086 27.282 33.5888 27.3887 33.8502C27.4955 34.1117 27.6519 34.3492 27.8492 34.5493C28.0464 34.7493 28.2806 34.9081 28.5383 35.0163C28.796 35.1246 29.0722 35.1804 29.3511 35.1804C29.9144 35.1804 30.4547 34.9533 30.853 34.5493C31.2514 34.1452 31.4751 33.5971 31.4751 33.0257C31.4751 32.4542 31.2514 31.9062 30.853 31.5021C30.4547 31.098 29.9144 30.871 29.3511 30.871Z" fill="#000825"/>
<path opacity="0.25" fill-rule="evenodd" clip-rule="evenodd" d="M43.2056 35.4046L43.2251 35.5305C43.4496 36.9468 44.1881 40.1581 42.317 40.878C41.5648 41.1782 40.9628 40.9547 40.4286 40.2876L40.5959 40.2912C41.3462 40.3032 43.8413 40.1641 43.2056 35.4046ZM26.1588 37.8542L26.1694 37.9201C26.6137 40.5088 28.6492 40.2858 28.9641 40.2876C28.4388 40.9427 27.848 41.1698 27.1148 40.8923L27.0758 40.8774C25.874 40.4153 25.7488 38.9253 25.8722 37.5437C25.9597 37.6432 26.0554 37.7469 26.1588 37.8542ZM26.1866 35.4046C26.0779 36.221 26.0607 36.9018 26.1115 37.4688C26.0416 37.3878 25.9727 37.3058 25.9047 37.2231L25.9231 37.0744C26.004 36.4373 26.1192 35.8535 26.1807 35.4454L26.1866 35.4046ZM32.0506 34.6644C32.3571 34.6644 32.6511 34.7879 32.8678 35.0078C33.0845 35.2277 33.2063 35.5258 33.2063 35.8368C33.2063 36.1477 33.0845 36.4459 32.8678 36.6657C32.6511 36.8856 32.3571 37.0091 32.0506 37.0091C31.7441 37.0091 31.4502 36.8856 31.2334 36.6657C31.0167 36.4459 30.8949 36.1477 30.8949 35.8368C30.8949 35.5258 31.0167 35.2277 31.2334 35.0078C31.4502 34.7879 31.7441 34.6644 32.0506 34.6644ZM37.4248 34.6644C37.7313 34.6644 38.0253 34.7879 38.242 35.0078C38.4588 35.2277 38.5805 35.5258 38.5805 35.8368C38.5805 36.1477 38.4588 36.4459 38.242 36.6657C38.0253 36.8856 37.7313 37.0091 37.4248 37.0091C37.1183 37.0091 36.8244 36.8856 36.6077 36.6657C36.3909 36.4459 36.2692 36.1477 36.2692 35.8368C36.2692 35.5258 36.3909 35.2277 36.6077 35.0078C36.8244 34.7879 37.1183 34.6644 37.4248 34.6644ZM35.4721 36.2413C35.5944 36.2413 35.6937 36.342 35.6937 36.4661V36.4907C35.6938 36.5202 35.6881 36.5495 35.677 36.5769C35.6659 36.6042 35.6496 36.629 35.629 36.65C35.6084 36.6709 35.584 36.6875 35.5571 36.6989C35.5301 36.7102 35.5013 36.716 35.4721 36.716H33.9194C33.8903 36.716 33.8614 36.7102 33.8345 36.6989C33.8076 36.6875 33.7831 36.6709 33.7625 36.65C33.742 36.629 33.7257 36.6042 33.7146 36.5769C33.7035 36.5495 33.6978 36.5202 33.6979 36.4907V36.4667C33.6979 36.342 33.7971 36.2413 33.9194 36.2413H35.4721ZM39.9743 30.8711C40.2532 30.8711 40.5294 30.9268 40.7871 31.0351C41.0448 31.1434 41.279 31.3021 41.4762 31.5022C41.6735 31.7023 41.8299 31.9398 41.9367 32.2012C42.0434 32.4626 42.0983 32.7428 42.0983 33.0258C42.0983 33.3087 42.0434 33.5889 41.9367 33.8503C41.8299 34.1118 41.6735 34.3493 41.4762 34.5494C41.279 34.7495 41.0448 34.9082 40.7871 35.0165C40.5294 35.1247 40.2532 35.1805 39.9743 35.1805C39.411 35.1805 38.8707 34.9535 38.4724 34.5494C38.074 34.1453 37.8502 33.5972 37.8502 33.0258C37.8502 32.4543 38.074 31.9063 38.4724 31.5022C38.8707 31.0981 39.411 30.8711 39.9743 30.8711ZM29.3511 30.8711C29.63 30.8711 29.9062 30.9268 30.1639 31.0351C30.4216 31.1434 30.6558 31.3021 30.853 31.5022C31.0502 31.7023 31.2067 31.9398 31.3134 32.2012C31.4202 32.4626 31.4751 32.7428 31.4751 33.0258C31.4751 33.3087 31.4202 33.5889 31.3134 33.8503C31.2067 34.1118 31.0502 34.3493 30.853 34.5494C30.6558 34.7495 30.4216 34.9082 30.1639 35.0165C29.9062 35.1247 29.63 35.1805 29.3511 35.1805C28.7877 35.1805 28.2475 34.9535 27.8491 34.5494C27.4508 34.1453 27.227 33.5972 27.227 33.0258C27.227 32.4543 27.4508 31.9063 27.8491 31.5022C28.2475 31.0981 28.7877 30.8711 29.3511 30.8711Z" fill="white"/>
<path d="M29.3632 34.845C30.3621 34.845 31.1718 34.0237 31.1718 33.0104C31.1718 31.9972 30.3621 31.1758 29.3632 31.1758C28.3644 31.1758 27.5547 31.9972 27.5547 33.0104C27.5547 34.0237 28.3644 34.845 29.3632 34.845Z" fill="#000825"/>
<path d="M39.9946 32.4214C40.321 32.4214 40.5855 32.153 40.5855 31.822C40.5855 31.491 40.321 31.2227 39.9946 31.2227C39.6683 31.2227 39.4038 31.491 39.4038 31.822C39.4038 32.153 39.6683 32.4214 39.9946 32.4214Z" fill="#BF2222"/>
<path d="M39.9946 34.8081C40.321 34.8081 40.5855 34.5397 40.5855 34.2087C40.5855 33.8777 40.321 33.6094 39.9946 33.6094C39.6683 33.6094 39.4038 33.8777 39.4038 34.2087C39.4038 34.5397 39.6683 34.8081 39.9946 34.8081Z" fill="#3F7BBF"/>
<path fill-rule="evenodd" clip-rule="evenodd" d="M39.4035 33.0167C39.4035 33.1745 39.3417 33.3258 39.2318 33.4374C39.1218 33.5489 38.9726 33.6116 38.8171 33.6116C38.6616 33.6116 38.5124 33.5489 38.4025 33.4374C38.2925 33.3258 38.2307 33.1745 38.2307 33.0167C38.2307 32.859 38.2925 32.7077 38.4025 32.5961C38.5124 32.4845 38.6616 32.4219 38.8171 32.4219C38.9726 32.4219 39.1218 32.4845 39.2318 32.5961C39.3417 32.7077 39.4035 32.859 39.4035 33.0167Z" fill="#E6CA19"/>
<path fill-rule="evenodd" clip-rule="evenodd" d="M41.7582 33.0164C41.7582 33.0945 41.743 33.1718 41.7135 33.244C41.6841 33.3161 41.6409 33.3816 41.5865 33.4369C41.5321 33.4921 41.4674 33.5359 41.3963 33.5657C41.3252 33.5956 41.249 33.611 41.172 33.611C41.0951 33.611 41.0189 33.5956 40.9478 33.5657C40.8766 33.5359 40.812 33.4921 40.7576 33.4369C40.7032 33.3816 40.66 33.3161 40.6306 33.244C40.6011 33.1718 40.5859 33.0945 40.5859 33.0164C40.5859 32.8587 40.6477 32.7075 40.7576 32.596C40.8675 32.4845 41.0166 32.4219 41.172 32.4219C41.3275 32.4219 41.4766 32.4845 41.5865 32.596C41.6964 32.7075 41.7582 32.8587 41.7582 33.0164Z" fill="#14805E"/>
<path d="M39.9944 32.4157C40.1498 32.4157 40.2989 32.353 40.4088 32.2415C40.5187 32.13 40.5805 31.9788 40.5805 31.8211C40.5805 31.6634 40.5187 31.5122 40.4088 31.4007C40.2989 31.2892 40.1498 31.2266 39.9944 31.2266C39.8389 31.2266 39.6898 31.2892 39.5799 31.4007C39.47 31.5122 39.4082 31.6634 39.4082 31.8211C39.4082 31.9788 39.47 32.13 39.5799 32.2415C39.6898 32.353 39.8389 32.4157 39.9944 32.4157ZM39.9944 32.3102C39.8665 32.3102 39.7439 32.2587 39.6534 32.167C39.563 32.0752 39.5122 31.9508 39.5122 31.8211C39.5122 31.6914 39.563 31.567 39.6534 31.4753C39.7439 31.3836 39.8665 31.332 39.9944 31.332C40.1222 31.332 40.2449 31.3836 40.3353 31.4753C40.4257 31.567 40.4765 31.6914 40.4765 31.8211C40.4765 31.9508 40.4257 32.0752 40.3353 32.167C40.2449 32.2587 40.1222 32.3102 39.9944 32.3102ZM39.9944 34.8047C40.1498 34.8047 40.2989 34.7421 40.4088 34.6306C40.5187 34.5191 40.5805 34.3678 40.5805 34.2102C40.5805 34.0525 40.5187 33.9012 40.4088 33.7897C40.2989 33.6782 40.1498 33.6156 39.9944 33.6156C39.8389 33.6156 39.6898 33.6782 39.5799 33.7897C39.47 33.9012 39.4082 34.0525 39.4082 34.2102C39.4082 34.3678 39.47 34.5191 39.5799 34.6306C39.6898 34.7421 39.8389 34.8047 39.9944 34.8047ZM39.9944 34.6986C39.9291 34.7019 39.8639 34.6917 39.8027 34.6686C39.7414 34.6456 39.6854 34.6101 39.6381 34.5644C39.5908 34.5188 39.5531 34.4638 39.5274 34.4029C39.5016 34.342 39.4884 34.2764 39.4884 34.2102C39.4884 34.1439 39.5016 34.0783 39.5274 34.0174C39.5531 33.9565 39.5908 33.9016 39.6381 33.8559C39.6854 33.8102 39.7414 33.7747 39.8027 33.7517C39.8639 33.7286 39.9291 33.7184 39.9944 33.7217C40.1179 33.7279 40.2344 33.7821 40.3197 33.873C40.405 33.9639 40.4526 34.0846 40.4526 34.2102C40.4526 34.3357 40.405 34.4564 40.3197 34.5473C40.2344 34.6382 40.1179 34.6924 39.9944 34.6986ZM39.4035 33.0156C39.4035 33.1734 39.3417 33.3247 39.2318 33.4363C39.1218 33.5478 38.9726 33.6105 38.8171 33.6105C38.6616 33.6105 38.5124 33.5478 38.4025 33.4363C38.2925 33.3247 38.2307 33.1734 38.2307 33.0156C38.2307 32.8579 38.2925 32.7066 38.4025 32.595C38.5124 32.4835 38.6616 32.4208 38.8171 32.4208C38.9726 32.4208 39.1218 32.4835 39.2318 32.595C39.3417 32.7066 39.4035 32.8579 39.4035 33.0156ZM39.2989 33.0156C39.3012 32.95 39.2904 32.8846 39.2672 32.8233C39.244 32.762 39.2089 32.706 39.1639 32.6588C39.119 32.6116 39.0651 32.574 39.0055 32.5483C38.9459 32.5227 38.8819 32.5094 38.8171 32.5094C38.7524 32.5094 38.6883 32.5227 38.6287 32.5483C38.5691 32.574 38.5153 32.6116 38.4703 32.6588C38.4253 32.706 38.3902 32.762 38.367 32.8233C38.3438 32.8846 38.333 32.95 38.3353 33.0156C38.3397 33.1423 38.3923 33.2623 38.4822 33.3504C38.5721 33.4384 38.6922 33.4876 38.8171 33.4876C38.9421 33.4876 39.0621 33.4384 39.152 33.3504C39.2419 33.2623 39.2946 33.1423 39.2989 33.0156ZM41.758 33.0156C41.758 33.0937 41.7428 33.171 41.7134 33.2432C41.6839 33.3153 41.6408 33.3809 41.5863 33.4361C41.5319 33.4913 41.4673 33.5351 41.3962 33.5649C41.3251 33.5948 41.2489 33.6102 41.1719 33.6102C41.0949 33.6102 41.0187 33.5948 40.9476 33.5649C40.8765 33.5351 40.8119 33.4913 40.7574 33.4361C40.703 33.3809 40.6599 33.3153 40.6304 33.2432C40.6009 33.171 40.5858 33.0937 40.5858 33.0156C40.5858 32.858 40.6475 32.7067 40.7574 32.5952C40.8674 32.4837 41.0164 32.4211 41.1719 32.4211C41.3273 32.4211 41.4764 32.4837 41.5863 32.5952C41.6962 32.7067 41.758 32.858 41.758 33.0156ZM41.654 33.0156C41.6563 32.95 41.6455 32.8846 41.6223 32.8233C41.5991 32.762 41.564 32.706 41.519 32.6588C41.474 32.6116 41.4202 32.574 41.3606 32.5483C41.301 32.5227 41.2369 32.5094 41.1722 32.5094C41.1075 32.5094 41.0434 32.5227 40.9838 32.5483C40.9242 32.574 40.8703 32.6116 40.8254 32.6588C40.7804 32.706 40.7453 32.762 40.7221 32.8233C40.6989 32.8846 40.6881 32.95 40.6904 33.0156C40.6965 33.141 40.7499 33.2592 40.8395 33.3457C40.9292 33.4323 41.0482 33.4805 41.1719 33.4805C41.2956 33.4805 41.4146 33.4323 41.5043 33.3457C41.5939 33.2592 41.6473 33.141 41.6534 33.0156H41.654Z" fill="white"/>
<path d="M32.0679 36.7194C32.5466 36.7194 32.9347 36.3258 32.9347 35.8402C32.9347 35.3546 32.5466 34.9609 32.0679 34.9609C31.5892 34.9609 31.2012 35.3546 31.2012 35.8402C31.2012 36.3258 31.5892 36.7194 32.0679 36.7194Z" fill="white"/>
<path d="M37.4075 36.7194C37.8862 36.7194 38.2743 36.3258 38.2743 35.8402C38.2743 35.3546 37.8862 34.9609 37.4075 34.9609C36.9288 34.9609 36.5408 35.3546 36.5408 35.8402C36.5408 36.3258 36.9288 36.7194 37.4075 36.7194Z" fill="white"/>
<path opacity="0.25" fill-rule="evenodd" clip-rule="evenodd" d="M37.4078 36.7195C37.7269 36.5624 37.9165 36.2795 37.9165 35.8402C37.9165 35.4003 37.6081 35.0395 37.4084 34.9609C37.5223 34.9609 37.635 34.9837 37.7401 35.0279C37.8453 35.0721 37.9408 35.1368 38.0213 35.2185C38.1018 35.3001 38.1656 35.397 38.2092 35.5037C38.2528 35.6104 38.2752 35.7247 38.2752 35.8402C38.2752 35.9557 38.2528 36.07 38.2092 36.1767C38.1656 36.2833 38.1018 36.3803 38.0213 36.4619C37.9408 36.5436 37.8453 36.6083 37.7401 36.6525C37.635 36.6967 37.5217 36.7195 37.4078 36.7195ZM32.0679 36.7195C32.3869 36.5624 32.5766 36.2795 32.5766 35.8402C32.5766 35.4003 32.2682 35.0395 32.0679 34.9609C32.1817 34.9609 32.2944 34.9837 32.3996 35.0279C32.5047 35.0721 32.6003 35.1368 32.6808 35.2185C32.7612 35.3001 32.8251 35.397 32.8686 35.5037C32.9122 35.6104 32.9346 35.7247 32.9346 35.8402C32.9346 35.9557 32.9122 36.07 32.8686 36.1767C32.8251 36.2833 32.7612 36.3803 32.6808 36.4619C32.6003 36.5436 32.5047 36.6083 32.3996 36.6525C32.2944 36.6967 32.1817 36.7195 32.0679 36.7195Z" fill="white"/>
<path fill-rule="evenodd" clip-rule="evenodd" d="M29.2305 31.5586H29.4964C29.5904 31.5586 29.666 31.6359 29.666 31.7312V32.4133L29.341 32.6087L29.0604 32.4133V31.7312C29.0604 31.6353 29.1366 31.5586 29.2305 31.5586ZM29.2305 34.4625C29.1854 34.4625 29.1421 34.4443 29.1102 34.4119C29.0783 34.3795 29.0604 34.3356 29.0604 34.2899V33.6078L29.341 33.413L29.666 33.6078V34.2899C29.666 34.3355 29.6481 34.3794 29.6164 34.4117C29.5846 34.4441 29.5414 34.4623 29.4964 34.4625H29.2305ZM27.9319 33.1457V32.876C27.9319 32.7801 28.0081 32.7034 28.102 32.7034H28.7744L28.9664 33.033L28.7744 33.3177H28.102C28.057 33.3177 28.0138 33.2996 27.9819 33.2674C27.95 33.2351 27.932 33.1914 27.9319 33.1457ZM30.7945 33.1457C30.7943 33.1914 30.7763 33.2351 30.7444 33.2674C30.7125 33.2996 30.6693 33.3177 30.6243 33.3177H29.952L29.7593 33.033L29.952 32.7034H30.6249C30.7194 32.7034 30.7951 32.7807 30.7951 32.8754V33.1451L30.7945 33.1457Z" fill="white"/>
<path fill-rule="evenodd" clip-rule="evenodd" d="M27.9539 29.3822C28.7598 29.1473 29.5928 29.0957 30.394 29.2767L30.4159 29.7262C29.5881 29.5884 28.7562 29.6447 27.9751 29.8317L27.9539 29.3822ZM41.4414 29.3822C40.635 29.1473 39.8025 29.0957 39.0007 29.2767L38.9794 29.7262C39.8072 29.5884 40.6391 29.6447 41.4196 29.8317L41.4414 29.3822Z" fill="#000825"/>
</svg>
