<svg width="45" height="31" viewBox="0 0 45 31" fill="none" xmlns="http://www.w3.org/2000/svg">
<path fill-rule="evenodd" clip-rule="evenodd" d="M39.594 3.56358L39.663 3.59508C40.7925 4.13958 42.1155 6.19008 44.1045 16.3361C44.2875 17.5721 44.694 19.5026 44.8905 21.5426C44.5005 21.9836 44.055 22.4531 43.545 22.9286C42.03 24.3416 39.9945 25.3331 37.44 25.9031C40.218 25.6271 42.366 24.7811 43.8825 23.3681C44.2695 23.0081 44.6265 22.6541 44.9535 22.3151L44.967 22.5356C45.147 25.7366 44.652 28.9706 41.8485 30.0341C38.109 31.5071 35.8275 27.9446 33.441 20.8631L33.366 20.7491C33.114 20.3816 32.847 20.1146 32.538 20.1341C31.743 20.8391 30.918 21.2081 30.0645 21.2891C30.7797 21.1421 31.4361 20.7885 31.9522 20.2721C32.4684 19.7557 32.8217 19.0992 32.9683 18.3839C33.1149 17.6686 33.0483 16.9261 32.7769 16.2483C32.5055 15.5704 32.0412 14.9872 31.4415 14.5707C30.8417 14.1543 30.133 13.923 29.4031 13.9055C28.6731 13.888 27.9541 14.0851 27.3351 14.4723C26.7162 14.8596 26.2244 15.42 25.9209 16.084C25.6173 16.7481 25.5153 17.4866 25.6275 18.2081V18.2426C25.6275 19.0526 25.9455 19.6916 26.343 20.1326H18.942C19.4083 19.6141 19.6636 18.9399 19.6575 18.2426C19.6575 17.1611 19.398 16.2851 18.8775 15.6176C18.5437 15.0995 18.0867 14.6722 17.5474 14.3739C17.008 14.0757 16.4032 13.9158 15.7869 13.9085C15.1706 13.9012 14.5622 14.0467 14.0159 14.3322C13.4697 14.6176 13.0027 15.0339 12.6567 15.544C12.3108 16.054 12.0966 16.6419 12.0334 17.2549C11.9703 17.868 12.06 18.4872 12.2947 19.0571C12.5294 19.627 12.9016 20.1298 13.3782 20.5206C13.8547 20.9114 14.4207 21.178 15.0255 21.2966C14.1405 21.2336 13.2855 20.8661 12.462 20.1341C12.1215 20.1131 11.832 20.4371 11.559 20.8631L11.415 21.2831C9.10502 28.0166 6.86252 31.4081 3.26252 30.0761L3.15152 30.0341C0.0990236 28.8761 -0.217476 25.1456 0.0960237 21.6866C0.561024 22.2071 1.11752 22.7771 1.75202 23.3666C3.26702 24.7811 5.41502 25.6271 8.19302 25.9016C5.63852 25.3331 3.60302 24.3416 2.08802 22.9286C1.40775 22.2887 0.770374 21.6047 0.180024 20.8811C0.390024 19.0901 0.732024 17.4371 0.895524 16.3361L1.01552 15.7256C2.98502 5.95008 4.45052 5.16558 5.40602 3.56208C7.58852 2.93958 9.68102 2.94708 11.727 3.27708C13.7745 3.60558 15.522 6.40008 16.0155 6.38658C16.1205 6.14058 28.4325 6.47058 28.545 6.70158C30.33 4.63758 31.908 3.49608 33.273 3.27708C35.319 2.94708 37.4115 2.94108 39.594 3.56358ZM24.471 18.4301H20.529C20.3798 18.4301 20.2368 18.4893 20.1313 18.5948C20.0258 18.7003 19.9665 18.8434 19.9665 18.9926V19.0541C19.9665 19.3661 20.2185 19.6181 20.529 19.6181H24.471C24.545 19.6181 24.6183 19.6035 24.6866 19.5751C24.755 19.5468 24.8171 19.5052 24.8693 19.4528C24.9216 19.4004 24.963 19.3382 24.9911 19.2698C25.0193 19.2014 25.0337 19.1281 25.0335 19.0541V18.9941C25.0337 18.9201 25.0193 18.8468 24.9911 18.7784C24.963 18.7099 24.9216 18.6478 24.8693 18.5954C24.8171 18.543 24.755 18.5014 24.6866 18.473C24.6183 18.4447 24.545 18.4301 24.471 18.4301ZM35.901 4.99008C35.1929 4.99008 34.4917 5.12956 33.8374 5.40056C33.1832 5.67156 32.5887 6.06876 32.088 6.5695C31.5872 7.07024 31.19 7.66471 30.919 8.31896C30.648 8.97321 30.5085 9.67442 30.5085 10.3826C30.5085 11.0907 30.648 11.792 30.919 12.4462C31.19 13.1004 31.5872 13.6949 32.088 14.1957C32.5887 14.6964 33.1832 15.0936 33.8374 15.3646C34.4917 15.6356 35.1929 15.7751 35.901 15.7751C37.3312 15.7751 38.7028 15.2069 39.7141 14.1957C40.7254 13.1844 41.2935 11.8128 41.2935 10.3826C41.2935 8.9524 40.7254 7.58079 39.7141 6.5695C38.7028 5.55821 37.3312 4.99008 35.901 4.99008ZM8.93102 4.99008C8.22287 4.99008 7.52165 5.12956 6.8674 5.40056C6.21316 5.67156 5.61869 6.06876 5.11795 6.5695C4.61721 7.07024 4.22 7.66471 3.949 8.31896C3.678 8.97321 3.53852 9.67442 3.53852 10.3826C3.53852 11.0907 3.678 11.792 3.949 12.4462C4.22 13.1004 4.61721 13.6949 5.11795 14.1957C5.61869 14.6964 6.21316 15.0936 6.8674 15.3646C7.52165 15.6356 8.22287 15.7751 8.93102 15.7751C10.3612 15.7751 11.7328 15.2069 12.7441 14.1957C13.7554 13.1844 14.3235 11.8128 14.3235 10.3826C14.3235 8.9524 13.7554 7.58079 12.7441 6.5695C11.7328 5.55821 10.3612 4.99008 8.93102 4.99008Z" fill="#FFFADA"/>
<path opacity="0.25" fill-rule="evenodd" clip-rule="evenodd" d="M44.1046 16.3382L44.1541 16.6532C44.7241 20.1977 46.5991 28.2347 41.8486 30.0362C39.9391 30.7877 38.4106 30.2282 37.0546 28.5587L37.4791 28.5677C39.3841 28.5977 45.7186 28.2497 44.1046 16.3382ZM0.826567 22.4687L0.853567 22.6337C1.98157 29.1122 7.14907 28.5542 7.94857 28.5587C6.61507 30.1982 5.11507 30.7667 3.25357 30.0722L3.15457 30.0347C0.103567 28.8782 -0.214433 25.1492 0.0990672 21.6917C0.321067 21.9407 0.564067 22.2002 0.826567 22.4687ZM0.897067 16.3382C0.621067 18.3812 0.577567 20.0852 0.706567 21.5042C0.529074 21.3013 0.354061 21.0963 0.181567 20.8892L0.228067 20.5172C0.433567 18.9227 0.726067 17.4617 0.882067 16.4402L0.897067 16.3382ZM15.7846 14.4857C16.5627 14.4857 17.309 14.7948 17.8592 15.345C18.4095 15.8953 18.7186 16.6415 18.7186 17.4197C18.7186 18.1978 18.4095 18.9441 17.8592 19.4943C17.309 20.0446 16.5627 20.3537 15.7846 20.3537C15.0064 20.3537 14.2601 20.0446 13.7099 19.4943C13.1597 18.9441 12.8506 18.1978 12.8506 17.4197C12.8506 16.6415 13.1597 15.8953 13.7099 15.345C14.2601 14.7948 15.0064 14.4857 15.7846 14.4857ZM29.4286 14.4857C30.2067 14.4857 30.953 14.7948 31.5032 15.345C32.0534 15.8953 32.3626 16.6415 32.3626 17.4197C32.3626 18.1978 32.0534 18.9441 31.5032 19.4943C30.953 20.0446 30.2067 20.3537 29.4286 20.3537C28.6504 20.3537 27.9041 20.0446 27.3539 19.4943C26.8037 18.9441 26.4946 18.1978 26.4946 17.4197C26.4946 16.6415 26.8037 15.8953 27.3539 15.345C27.9041 14.7948 28.6504 14.4857 29.4286 14.4857ZM24.4711 18.4322C24.7816 18.4322 25.0336 18.6842 25.0336 18.9947V19.0562C25.0338 19.1302 25.0194 19.2035 24.9912 19.2719C24.963 19.3403 24.9216 19.4025 24.8693 19.4549C24.8171 19.5073 24.755 19.5489 24.6867 19.5772C24.6183 19.6056 24.5451 19.6202 24.4711 19.6202H20.5291C20.4551 19.6202 20.3818 19.6056 20.3135 19.5772C20.2451 19.5489 20.183 19.5073 20.1308 19.4549C20.0785 19.4025 20.0371 19.3403 20.009 19.2719C19.9808 19.2035 19.9664 19.1302 19.9666 19.0562V18.9962C19.9666 18.6842 20.2186 18.4322 20.5291 18.4322H24.4711ZM35.9011 4.99219C36.6092 4.99219 37.3104 5.13167 37.9647 5.40267C38.6189 5.67367 39.2134 6.07087 39.7141 6.57161C40.2149 7.07235 40.6121 7.66682 40.8831 8.32107C41.1541 8.97532 41.2936 9.67653 41.2936 10.3847C41.2936 11.0928 41.1541 11.7941 40.8831 12.4483C40.6121 13.1026 40.2149 13.697 39.7141 14.1978C39.2134 14.6985 38.6189 15.0957 37.9647 15.3667C37.3104 15.6377 36.6092 15.7772 35.9011 15.7772C34.4709 15.7772 33.0993 15.2091 32.088 14.1978C31.0767 13.1865 30.5086 11.8149 30.5086 10.3847C30.5086 8.95451 31.0767 7.5829 32.088 6.57161C33.0993 5.56032 34.4709 4.99219 35.9011 4.99219ZM8.93107 4.99219C9.63922 4.99219 10.3404 5.13167 10.9947 5.40267C11.6489 5.67367 12.2434 6.07087 12.7441 6.57161C13.2449 7.07235 13.6421 7.66682 13.9131 8.32107C14.1841 8.97532 14.3236 9.67653 14.3236 10.3847C14.3236 11.0928 14.1841 11.7941 13.9131 12.4483C13.6421 13.1026 13.2449 13.697 12.7441 14.1978C12.2434 14.6985 11.6489 15.0957 10.9947 15.3667C10.3404 15.6377 9.63922 15.7772 8.93107 15.7772C7.50089 15.7772 6.12928 15.2091 5.11799 14.1978C4.1067 13.1865 3.53857 11.8149 3.53857 10.3847C3.53857 8.95451 4.1067 7.5829 5.11799 6.57161C6.12928 5.56032 7.50089 4.99219 8.93107 4.99219Z" fill="black"/>
<path d="M8.96113 14.9291C11.4969 14.9291 13.5526 12.8734 13.5526 10.3376C13.5526 7.80178 11.4969 5.74609 8.96113 5.74609C6.42531 5.74609 4.36963 7.80178 4.36963 10.3376C4.36963 12.8734 6.42531 14.9291 8.96113 14.9291Z" fill="#FFFADA"/>
<path d="M35.9519 8.87109C36.7803 8.87109 37.4519 8.19952 37.4519 7.37109C37.4519 6.54267 36.7803 5.87109 35.9519 5.87109C35.1235 5.87109 34.4519 6.54267 34.4519 7.37109C34.4519 8.19952 35.1235 8.87109 35.9519 8.87109Z" fill="#BF2222"/>
<path d="M35.9519 14.8516C36.7803 14.8516 37.4519 14.18 37.4519 13.3516C37.4519 12.5231 36.7803 11.8516 35.9519 11.8516C35.1235 11.8516 34.4519 12.5231 34.4519 13.3516C34.4519 14.18 35.1235 14.8516 35.9519 14.8516Z" fill="#3F7BBF"/>
<path fill-rule="evenodd" clip-rule="evenodd" d="M34.4521 10.3598C34.4521 10.7547 34.2953 11.1334 34.0161 11.4125C33.7369 11.6917 33.3582 11.8486 32.9634 11.8486C32.5685 11.8486 32.1898 11.6917 31.9107 11.4125C31.6315 11.1334 31.4746 10.7547 31.4746 10.3598C31.4746 9.965 31.6315 9.58633 31.9107 9.30714C32.1898 9.02794 32.5685 8.87109 32.9634 8.87109C33.3582 8.87109 33.7369 9.02794 34.0161 9.30714C34.2953 9.58633 34.4521 9.965 34.4521 10.3598Z" fill="#E6CA19"/>
<path fill-rule="evenodd" clip-rule="evenodd" d="M40.4296 10.3591C40.4296 10.5545 40.3911 10.748 40.3163 10.9285C40.2416 11.1091 40.132 11.2731 39.9938 11.4113C39.8556 11.5494 39.6916 11.659 39.511 11.7338C39.3305 11.8086 39.137 11.8471 38.9416 11.8471C38.7462 11.8471 38.5527 11.8086 38.3722 11.7338C38.1916 11.659 38.0276 11.5494 37.8894 11.4113C37.7513 11.2731 37.6417 11.1091 37.5669 10.9285C37.4921 10.748 37.4536 10.5545 37.4536 10.3591C37.4536 9.96445 37.6104 9.58597 37.8894 9.30692C38.1685 9.02786 38.547 8.87109 38.9416 8.87109C39.3363 8.87109 39.7147 9.02786 39.9938 9.30692C40.2728 9.58597 40.4296 9.96445 40.4296 10.3591Z" fill="#14805E"/>
<path d="M35.9521 8.85881C36.3468 8.85881 36.7252 8.70204 37.0043 8.42299C37.2833 8.14393 37.4401 7.76545 37.4401 7.37081C37.4401 6.97617 37.2833 6.59769 37.0043 6.31864C36.7252 6.03958 36.3468 5.88281 35.9521 5.88281C35.5575 5.88281 35.179 6.03958 34.8999 6.31864C34.6209 6.59769 34.4641 6.97617 34.4641 7.37081C34.4641 7.76545 34.6209 8.14393 34.8999 8.42299C35.179 8.70204 35.5575 8.85881 35.9521 8.85881ZM35.9521 8.59481C35.6275 8.59481 35.3162 8.46586 35.0866 8.23631C34.8571 8.00677 34.7281 7.69544 34.7281 7.37081C34.7281 7.04619 34.8571 6.73486 35.0866 6.50531C35.3162 6.27577 35.6275 6.14681 35.9521 6.14681C36.2767 6.14681 36.5881 6.27577 36.8176 6.50531C37.0472 6.73486 37.1761 7.04619 37.1761 7.37081C37.1761 7.69544 37.0472 8.00677 36.8176 8.23631C36.5881 8.46586 36.2767 8.59481 35.9521 8.59481ZM35.9521 14.8378C36.3468 14.8378 36.7252 14.681 37.0043 14.402C37.2833 14.1229 37.4401 13.7445 37.4401 13.3498C37.4401 12.9552 37.2833 12.5767 37.0043 12.2976C36.7252 12.0186 36.3468 11.8618 35.9521 11.8618C35.5575 11.8618 35.179 12.0186 34.8999 12.2976C34.6209 12.5767 34.4641 12.9552 34.4641 13.3498C34.4641 13.7445 34.6209 14.1229 34.8999 14.402C35.179 14.681 35.5575 14.8378 35.9521 14.8378ZM35.9521 14.5723C35.7865 14.5805 35.6209 14.555 35.4654 14.4973C35.31 14.4395 35.1679 14.3508 35.0477 14.2365C34.9276 14.1221 34.8319 13.9846 34.7666 13.8322C34.7012 13.6798 34.6675 13.5157 34.6675 13.3498C34.6675 13.184 34.7012 13.0199 34.7666 12.8674C34.8319 12.715 34.9276 12.5775 35.0477 12.4632C35.1679 12.3488 35.31 12.2601 35.4654 12.2024C35.6209 12.1446 35.7865 12.1191 35.9521 12.1273C36.2659 12.1429 36.5616 12.2784 36.7782 12.506C36.9948 12.7336 37.1155 13.0357 37.1155 13.3498C37.1155 13.6639 36.9948 13.9661 36.7782 14.1936C36.5616 14.4212 36.2659 14.5568 35.9521 14.5723ZM34.4521 10.3603C34.4521 10.7552 34.2953 11.1338 34.0161 11.413C33.7369 11.6922 33.3582 11.8491 32.9634 11.8491C32.5685 11.8491 32.1898 11.6922 31.9107 11.413C31.6315 11.1338 31.4746 10.7552 31.4746 10.3603C31.4746 9.96547 31.6315 9.5868 31.9107 9.30761C32.1898 9.02841 32.5685 8.87156 32.9634 8.87156C33.3582 8.87156 33.7369 9.02841 34.0161 9.30761C34.2953 9.5868 34.4521 9.96547 34.4521 10.3603ZM34.1866 10.3603C34.1924 10.1961 34.165 10.0323 34.1061 9.87891C34.0472 9.72548 33.958 9.58548 33.8439 9.46725C33.7297 9.34903 33.5929 9.255 33.4416 9.19078C33.2904 9.12657 33.1277 9.09347 32.9634 9.09347C32.799 9.09347 32.6364 9.12657 32.4851 9.19078C32.3338 9.255 32.197 9.34903 32.0828 9.46725C31.9687 9.58548 31.8795 9.72548 31.8206 9.87891C31.7617 10.0323 31.7344 10.1961 31.7401 10.3603C31.7512 10.6773 31.885 10.9776 32.1131 11.198C32.3413 11.4183 32.6462 11.5415 32.9634 11.5415C33.2806 11.5415 33.5854 11.4183 33.8136 11.198C34.0418 10.9776 34.1755 10.6773 34.1866 10.3603ZM40.4296 10.3603C40.4296 10.5557 40.3911 10.7492 40.3163 10.9297C40.2416 11.1103 40.132 11.2743 39.9938 11.4125C39.8556 11.5507 39.6916 11.6603 39.511 11.735C39.3305 11.8098 39.137 11.8483 38.9416 11.8483C38.7462 11.8483 38.5527 11.8098 38.3722 11.735C38.1916 11.6603 38.0276 11.5507 37.8894 11.4125C37.7513 11.2743 37.6417 11.1103 37.5669 10.9297C37.4921 10.7492 37.4536 10.5557 37.4536 10.3603C37.4536 9.96567 37.6104 9.58719 37.8894 9.30814C38.1685 9.02908 38.547 8.87231 38.9416 8.87231C39.3363 8.87231 39.7147 9.02908 39.9938 9.30814C40.2728 9.58719 40.4296 9.96567 40.4296 10.3603ZM40.1656 10.3603C40.1714 10.1961 40.144 10.0323 40.0851 9.87891C40.0262 9.72548 39.937 9.58548 39.8229 9.46725C39.7087 9.34903 39.5719 9.255 39.4206 9.19078C39.2694 9.12657 39.1067 9.09347 38.9424 9.09347C38.778 9.09347 38.6154 9.12657 38.4641 9.19078C38.3128 9.255 38.176 9.34903 38.0618 9.46725C37.9477 9.58548 37.8585 9.72548 37.7996 9.87891C37.7407 10.0323 37.7134 10.1961 37.7191 10.3603C37.7347 10.6741 37.8702 10.9698 38.0978 11.1864C38.3254 11.403 38.6275 11.5237 38.9416 11.5237C39.2557 11.5237 39.5579 11.403 39.7854 11.1864C40.013 10.9698 40.1486 10.6741 40.1641 10.3603H40.1656Z" fill="white"/>
<path d="M15.8279 19.6197C17.0432 19.6197 18.0284 18.6346 18.0284 17.4193C18.0284 16.2039 17.0432 15.2188 15.8279 15.2188C14.6126 15.2188 13.6274 16.2039 13.6274 17.4193C13.6274 18.6346 14.6126 19.6197 15.8279 19.6197Z" fill="white"/>
<path d="M29.3851 19.6197C30.6004 19.6197 31.5856 18.6346 31.5856 17.4193C31.5856 16.2039 30.6004 15.2188 29.3851 15.2188C28.1698 15.2188 27.1846 16.2039 27.1846 17.4193C27.1846 18.6346 28.1698 19.6197 29.3851 19.6197Z" fill="white"/>
<path opacity="0.25" fill-rule="evenodd" clip-rule="evenodd" d="M29.3851 19.6197C30.1951 19.2267 30.6766 18.5187 30.6766 17.4193C30.6766 16.3182 29.8936 15.4152 29.3866 15.2188C29.6756 15.2187 29.9617 15.2757 30.2287 15.3863C30.4957 15.4968 30.7383 15.6589 30.9426 15.8633C31.1469 16.0676 31.309 16.3102 31.4196 16.5772C31.5302 16.8441 31.5871 17.1303 31.5871 17.4193C31.5871 17.7082 31.5302 17.9944 31.4196 18.2613C31.309 18.5283 31.1469 18.7709 30.9426 18.9752C30.7383 19.1796 30.4957 19.3417 30.2287 19.4522C29.9617 19.5628 29.6741 19.6197 29.3851 19.6197ZM15.8281 19.6197C16.6381 19.2267 17.1196 18.5187 17.1196 17.4193C17.1196 16.3182 16.3366 15.4152 15.8281 15.2188C16.1171 15.2187 16.4032 15.2757 16.6702 15.3863C16.9372 15.4968 17.1798 15.6589 17.3841 15.8633C17.5884 16.0676 17.7505 16.3102 17.8611 16.5772C17.9717 16.8441 18.0286 17.1303 18.0286 17.4193C18.0286 17.7082 17.9717 17.9944 17.8611 18.2613C17.7505 18.5283 17.5884 18.7709 17.3841 18.9752C17.1798 19.1796 16.9372 19.3417 16.6702 19.4522C16.4032 19.5628 16.1171 19.6197 15.8281 19.6197Z" fill="black"/>
<path fill-rule="evenodd" clip-rule="evenodd" d="M8.62512 6.70312H9.30012C9.53862 6.70312 9.73062 6.89663 9.73062 7.13513V8.84212L8.90562 9.33112L8.19312 8.84212V7.13513C8.19312 6.89513 8.38662 6.70312 8.62512 6.70312ZM8.62512 13.9706C8.51055 13.9706 8.40067 13.9251 8.31965 13.8441C8.23864 13.7631 8.19312 13.6532 8.19312 13.5386V11.8316L8.90562 11.3441L9.73062 11.8316V13.5386C9.73063 13.6529 9.68532 13.7626 9.60463 13.8436C9.52393 13.9245 9.41444 13.9702 9.30012 13.9706H8.62512ZM5.32812 10.6751V10.0001C5.32812 9.76012 5.52162 9.56812 5.76012 9.56812H7.46713L7.95462 10.3931L7.46713 11.1056H5.76012C5.64581 11.1056 5.53616 11.0603 5.45518 10.9796C5.37421 10.8989 5.32852 10.7894 5.32812 10.6751ZM12.5956 10.6751C12.5952 10.7894 12.5495 10.8989 12.4686 10.9796C12.3876 11.0603 12.2779 11.1056 12.1636 11.1056H10.4566L9.96762 10.3931L10.4566 9.56812H12.1651C12.4051 9.56812 12.5971 9.76162 12.5971 9.99862V10.6736L12.5956 10.6751Z" fill="black"/>
<path fill-rule="evenodd" clip-rule="evenodd" d="M5.38354 1.26275C7.42954 0.674745 9.54454 0.545745 11.5785 0.998745L11.634 2.12375C9.53254 1.77875 7.42054 1.91975 5.43754 2.38775L5.38354 1.26275ZM39.6255 1.26275C37.578 0.674745 35.4645 0.545745 33.429 0.998745L33.375 2.12375C35.4765 1.77875 37.5885 1.91975 39.57 2.38775L39.6255 1.26275Z" fill="#FFFADA"/>
</svg>
